<?xml version="1.0" encoding="UTF-8"?>
<svg xmlns="http://www.w3.org/2000/svg" version="1.1" width="500" height="500" viewBox="0 0 500 500"><rect x="0" y="0" width="500" height="500" fill="#ffffff"/><g transform="scale(17.241)"><g transform="translate(0,0)"><path fill-rule="evenodd" d="M8 0L8 1L10 1L10 0ZM13 0L13 2L11 2L11 4L10 4L10 3L9 3L9 2L8 2L8 5L9 5L9 6L8 6L8 7L9 7L9 8L8 8L8 9L7 9L7 8L6 8L6 9L4 9L4 8L0 8L0 10L2 10L2 11L0 11L0 14L1 14L1 16L0 16L0 17L2 17L2 18L3 18L3 19L2 19L2 20L1 20L1 21L4 21L4 20L5 20L5 18L4 18L4 16L3 16L3 15L4 15L4 14L6 14L6 15L5 15L5 17L7 17L7 16L10 16L10 17L12 17L12 18L9 18L9 17L8 17L8 18L6 18L6 19L8 19L8 20L6 20L6 21L8 21L8 22L9 22L9 19L10 19L10 20L11 20L11 21L12 21L12 22L10 22L10 24L9 24L9 25L8 25L8 29L10 29L10 28L12 28L12 29L13 29L13 28L12 28L12 26L13 26L13 27L14 27L14 29L15 29L15 27L14 27L14 26L17 26L17 25L18 25L18 24L19 24L19 23L20 23L20 25L19 25L19 27L20 27L20 28L18 28L18 29L21 29L21 27L22 27L22 25L24 25L24 26L23 26L23 28L24 28L24 26L26 26L26 27L25 27L25 29L26 29L26 27L27 27L27 29L28 29L28 27L29 27L29 25L28 25L28 27L27 27L27 26L26 26L26 25L27 25L27 24L28 24L28 22L29 22L29 21L27 21L27 18L28 18L28 15L29 15L29 13L27 13L27 12L25 12L25 9L27 9L27 8L24 8L24 9L22 9L22 8L21 8L21 9L19 9L19 6L20 6L20 7L21 7L21 4L20 4L20 3L21 3L21 0L18 0L18 1L20 1L20 3L19 3L19 2L18 2L18 3L17 3L17 0L16 0L16 3L17 3L17 4L15 4L15 3L14 3L14 0ZM12 3L12 5L10 5L10 6L9 6L9 7L10 7L10 8L9 8L9 9L10 9L10 10L9 10L9 11L5 11L5 12L3 12L3 11L2 11L2 12L1 12L1 14L2 14L2 13L6 13L6 14L7 14L7 13L8 13L8 12L10 12L10 13L11 13L11 11L13 11L13 9L14 9L14 11L16 11L16 12L12 12L12 14L11 14L11 16L12 16L12 17L14 17L14 18L13 18L13 20L14 20L14 21L15 21L15 16L16 16L16 18L17 18L17 19L20 19L20 20L21 20L21 19L20 19L20 17L21 17L21 14L22 14L22 15L23 15L23 14L22 14L22 13L24 13L24 14L25 14L25 16L26 16L26 17L27 17L27 15L26 15L26 13L25 13L25 12L21 12L21 11L22 11L22 10L19 10L19 11L20 11L20 12L19 12L19 13L17 13L17 12L18 12L18 11L17 11L17 10L16 10L16 9L15 9L15 8L16 8L16 5L15 5L15 7L14 7L14 6L13 6L13 7L12 7L12 5L14 5L14 4L13 4L13 3ZM18 3L18 4L17 4L17 5L19 5L19 3ZM10 6L10 7L11 7L11 8L12 8L12 7L11 7L11 6ZM17 6L17 7L18 7L18 6ZM28 8L28 10L26 10L26 11L28 11L28 12L29 12L29 11L28 11L28 10L29 10L29 8ZM2 9L2 10L4 10L4 9ZM6 9L6 10L7 10L7 9ZM6 12L6 13L7 13L7 12ZM13 13L13 14L12 14L12 16L14 16L14 15L15 15L15 14L17 14L17 15L16 15L16 16L17 16L17 15L19 15L19 16L18 16L18 17L17 17L17 18L18 18L18 17L19 17L19 16L20 16L20 13L19 13L19 14L17 14L17 13ZM8 14L8 15L9 15L9 14ZM13 14L13 15L14 15L14 14ZM6 15L6 16L7 16L7 15ZM2 16L2 17L3 17L3 16ZM22 16L22 19L23 19L23 20L26 20L26 18L25 18L25 17L24 17L24 16ZM23 17L23 19L24 19L24 17ZM0 18L0 19L1 19L1 18ZM8 18L8 19L9 19L9 18ZM11 19L11 20L12 20L12 19ZM16 20L16 21L17 21L17 22L18 22L18 23L16 23L16 22L14 22L14 23L11 23L11 25L12 25L12 24L13 24L13 26L14 26L14 24L16 24L16 25L17 25L17 24L18 24L18 23L19 23L19 22L20 22L20 21L19 21L19 22L18 22L18 21L17 21L17 20ZM21 21L21 24L24 24L24 21ZM22 22L22 23L23 23L23 22ZM26 22L26 24L25 24L25 25L26 25L26 24L27 24L27 22ZM9 25L9 26L10 26L10 25ZM20 26L20 27L21 27L21 26ZM9 27L9 28L10 28L10 27ZM0 0L0 7L7 7L7 0ZM1 1L1 6L6 6L6 1ZM2 2L2 5L5 5L5 2ZM22 0L22 7L29 7L29 0ZM23 1L23 6L28 6L28 1ZM24 2L24 5L27 5L27 2ZM0 22L0 29L7 29L7 22ZM1 23L1 28L6 28L6 23ZM2 24L2 27L5 27L5 24Z" fill="#000000"/></g></g></svg>
